<?xml version="1.0" standalone="no"?>
<!DOCTYPE svg PUBLIC "-//W3C//DTD SVG 20010904//EN"
 "http://www.w3.org/TR/2001/REC-SVG-20010904/DTD/svg10.dtd">
<svg version="1.0" xmlns="http://www.w3.org/2000/svg"
 width="830.000000pt" height="830.000000pt" viewBox="0 0 830.000000 830.000000"
 preserveAspectRatio="xMidYMid meet">
<metadata>
Created by potrace 1.14, written by Peter Selinger 2001-2017
</metadata>
<g transform="translate(0.000000,830.000000) scale(0.100000,-0.100000)"
fill="#000000" stroke="none">
<path d="M4043 8279 c-24 -11 -41 -25 -38 -29 3 -5 1 -11 -5 -15 -20 -13 -9
-101 46 -353 30 -141 64 -301 75 -355 21 -108 25 -222 8 -232 -6 -4 -8 -13 -5
-21 3 -8 2 -14 -2 -14 -4 0 -21 -13 -37 -29 -32 -29 -112 -63 -310 -131 -66
-23 -127 -44 -135 -47 -8 -4 -17 -7 -20 -8 -51 -18 -218 -96 -275 -128 -106
-62 -174 -78 -232 -56 -24 9 -163 141 -163 155 0 31 -311 254 -354 254 -8 0
-16 3 -18 8 -7 15 -207 103 -237 104 -43 1 -81 -29 -100 -80 -14 -39 -14 -43
5 -69 13 -17 70 -53 145 -91 141 -72 225 -124 321 -199 37 -29 72 -53 78 -53
6 0 8 -4 5 -10 -3 -5 -2 -10 2 -10 17 0 96 -85 110 -119 15 -35 14 -77 -2
-100 -19 -26 -80 -86 -119 -116 -217 -169 -394 -364 -578 -635 -35 -53 -67
-102 -71 -110 -3 -8 -39 -69 -79 -135 -96 -157 -144 -185 -245 -143 -24 9 -43
15 -43 11 0 -3 -6 -1 -12 5 -18 14 -163 58 -233 71 -56 10 -80 13 -197 26 -24
2 -126 5 -228 6 -199 3 -218 -1 -239 -48 -15 -33 -13 -114 3 -135 18 -25 55
-36 106 -31 80 6 163 6 240 -1 41 -3 104 -8 140 -11 151 -10 351 -59 400 -97
71 -54 72 -121 6 -313 -169 -497 -236 -874 -230 -1295 2 -161 5 -202 25 -345
6 -38 12 -86 15 -105 14 -102 115 -456 147 -515 6 -11 10 -23 10 -26 -6 -21
191 -388 281 -524 58 -88 106 -167 107 -175 0 -8 2 -23 4 -32 5 -25 -21 -70
-110 -191 -138 -185 -224 -338 -340 -600 -56 -126 -59 -162 -18 -194 73 -59
133 -46 175 36 14 30 26 57 25 60 -6 26 200 401 289 528 24 34 44 64 44 68 0
15 74 74 100 80 40 9 78 -13 190 -109 52 -44 97 -83 100 -86 18 -20 184 -135
191 -132 5 1 9 -2 9 -7 0 -8 33 -31 95 -66 11 -7 43 -26 70 -43 28 -17 57 -32
65 -34 8 -2 17 -6 20 -9 5 -6 148 -80 152 -79 2 1 29 -10 61 -25 32 -14 66
-27 75 -28 9 -1 22 -5 27 -8 9 -6 54 -21 258 -84 73 -23 93 -34 121 -67 19
-22 38 -56 42 -76 5 -20 10 -201 10 -402 1 -269 5 -382 15 -430 l14 -65 65 0
64 0 15 60 c10 46 14 146 15 420 1 252 5 368 14 387 6 16 26 37 44 49 31 19
42 20 213 14 356 -14 520 -7 785 31 52 8 238 51 294 68 27 8 53 13 57 10 5 -3
32 -38 60 -79 28 -41 55 -75 60 -75 4 0 10 -8 13 -17 4 -10 23 -37 44 -60 20
-22 57 -65 82 -94 25 -29 52 -60 60 -68 8 -9 50 -59 93 -111 43 -52 87 -106
98 -118 10 -13 19 -27 19 -31 0 -4 9 -16 20 -26 11 -10 20 -24 20 -32 0 -7 5
-13 10 -13 6 0 10 -7 10 -15 0 -8 3 -15 8 -15 4 0 18 -25 31 -55 14 -30 29
-55 34 -55 4 0 6 -4 2 -9 -3 -5 1 -16 9 -24 8 -8 13 -17 11 -19 -3 -3 6 -15
19 -27 25 -24 87 -32 94 -13 2 7 7 10 12 7 14 -9 60 55 60 84 0 36 -19 91 -32
91 -5 0 -7 4 -3 9 3 5 0 16 -7 23 -7 8 -26 40 -43 72 -16 31 -39 67 -50 79
-11 12 -18 22 -15 22 7 0 -89 141 -116 170 -13 15 -24 30 -24 36 0 5 -7 12
-15 15 -8 4 -15 11 -15 16 0 11 -30 46 -107 127 -29 30 -53 55 -53 57 0 4
-137 135 -187 179 -24 21 -43 41 -43 45 0 5 15 11 33 15 51 11 191 81 226 115
18 16 35 30 38 30 3 0 26 18 51 41 73 64 125 90 189 96 70 6 134 -19 232 -92
98 -72 202 -120 524 -241 66 -25 115 5 136 83 15 55 -2 87 -59 112 -27 12 -54
21 -60 21 -6 0 -75 30 -153 66 -78 36 -146 67 -152 68 -5 1 -34 14 -62 29 -29
15 -55 26 -57 25 -9 -7 -105 64 -121 89 -23 35 -23 98 0 143 10 19 44 70 77
113 93 122 165 238 239 384 38 73 68 137 67 141 0 4 7 25 16 46 10 22 38 109
62 194 51 178 70 224 109 270 77 92 170 91 360 -6 115 -58 142 -67 189 -58 60
11 98 101 69 159 -18 36 -67 58 -207 92 -297 73 -379 191 -296 425 28 78 31
99 35 245 11 367 15 433 30 488 20 76 38 110 84 156 59 59 142 86 350 115 375
52 438 83 409 196 -19 74 -65 84 -218 45 -52 -13 -167 -39 -255 -58 -88 -19
-180 -41 -205 -47 -58 -17 -116 -16 -134 2 -17 18 -23 39 -31 113 -10 105 -36
217 -75 325 -40 112 -63 163 -215 475 -83 170 -98 208 -99 252 -2 74 18 90
214 169 91 37 167 70 170 73 3 3 11 7 18 9 38 8 312 126 335 145 38 31 49 76
29 117 -17 35 -50 53 -100 51 -33 0 -268 -90 -569 -217 -215 -90 -229 -88
-304 51 -49 92 -118 195 -131 195 -6 0 -8 3 -5 6 13 13 -226 274 -250 274 -9
0 -14 3 -10 6 3 3 -30 38 -74 76 -43 39 -79 73 -79 75 0 14 251 248 325 303
114 84 145 120 145 167 0 29 -8 44 -39 73 -76 72 -129 59 -243 -62 -43 -45
-80 -88 -83 -97 -9 -25 -123 -115 -198 -156 -110 -60 -207 -48 -327 40 -26 19
-53 35 -59 35 -6 0 -11 4 -11 8 0 16 -330 200 -330 185 0 -5 -4 -3 -8 3 -10
16 -314 162 -349 169 -47 8 -93 -13 -109 -51 -29 -69 -10 -111 66 -143 28 -12
50 -23 50 -25 0 -13 -28 -54 -33 -49 -4 3 -7 2 -7 -4 0 -14 -46 -33 -78 -33
-15 1 -61 9 -102 19 -68 16 -77 21 -92 51 -20 38 -39 87 -43 110 -2 8 -13 49
-24 90 -17 59 -81 392 -95 495 -9 69 -72 300 -85 316 -25 30 -70 33 -118 8z"/>
<path d="M1245 3794 c-77 -19 -229 -74 -233 -85 -2 -5 -7 -7 -11 -4 -10 5
-182 -91 -197 -111 -6 -7 -13 -12 -16 -9 -2 3 -22 -11 -44 -31 -21 -20 -40
-35 -40 -33 -4 9 -154 -138 -154 -150 0 -8 -3 -11 -6 -8 -4 4 -19 -10 -35 -31
-16 -20 -35 -44 -42 -52 -50 -53 -54 -119 -11 -157 28 -24 83 -40 93 -27 3 5
13 10 21 12 18 4 70 57 70 72 0 6 5 8 10 5 6 -3 10 -2 10 3 0 5 20 29 45 54
25 25 45 44 45 42 0 -5 55 42 97 83 13 13 27 23 31 24 4 1 32 18 62 39 71 47
188 110 206 110 8 0 14 5 14 10 0 6 8 10 18 10 10 0 22 3 26 8 4 4 11 7 14 8
4 0 39 10 78 23 106 33 138 77 109 148 -10 22 -26 39 -49 48 -41 17 -34 17
-111 -1z"/>
</g>
</svg>
