<?xml version="1.0" encoding="utf-8"?>
<!-- Generator: Adobe Illustrator 23.0.1, SVG Export Plug-In . SVG Version: 6.00 Build 0)  -->
<svg version="1.1" xmlns="http://www.w3.org/2000/svg" xmlns:xlink="http://www.w3.org/1999/xlink" x="0px" y="0px" width="24px"
	 height="24px" viewBox="0 0 24 24" enable-background="new 0 0 24 24" xml:space="preserve">
<g id="Bounding_Box">
	<rect fill="none" width="24" height="24"/>
</g>
<g id="Flat">
	<g id="ui_x5F_spec_x5F_header_copy_2">
	</g>
	<g>
		<path d="M19,5h-2V3H7v2H5C3.9,5,3,5.9,3,7v1c0,2.55,1.92,4.63,4.39,4.94c0.63,1.5,1.98,2.63,3.61,2.96V19H7v2h10v-2h-4v-3.1
			c1.63-0.33,2.98-1.46,3.61-2.96C19.08,12.63,21,10.55,21,8V7C21,5.9,20.1,5,19,5z M5,8V7h2v3.82C5.84,10.4,5,9.3,5,8z M12,14
			c-1.65,0-3-1.35-3-3V5h6v6C15,12.65,13.65,14,12,14z M19,8c0,1.3-0.84,2.4-2,2.82V7h2V8z"/>
	</g>
</g>
</svg>
